<svg width="67" height="55" viewBox="0 0 67 55" fill="none" xmlns="http://www.w3.org/2000/svg">
<path d="M65.2661 29.4852L39.2139 48.6876V11.0235C39.2139 9.12595 41.2904 8.02414 42.7915 9.12596L65.2661 25.6901C66.5298 26.6205 66.5298 28.5548 65.2661 29.4852Z" fill="#256BA7"/>
<path d="M19.5703 52.1876C20.4224 52.1876 21.2775 51.9568 22.0439 51.4991L22.3662 51.2892L22.3721 51.2843L45.6777 34.7228C48.3917 32.7961 48.392 28.7789 45.6787 26.8517L18.6621 7.64954L14.7139 4.84387V47.3497C14.714 50.2372 17.1051 52.1876 19.5645 52.1876H19.5703ZM23.4053 21.6691L36.2354 30.7863L23.4053 39.9044V21.6691Z" fill="#E91651" stroke="white" stroke-width="5"/>
<path d="M26.0522 29.8307L0 49.0331V11.369C0 9.47141 2.07658 8.36959 3.57765 9.47142L26.0522 26.0355C27.3159 26.966 27.3159 28.9003 26.0522 29.8307Z" fill="#256BA7"/>
</svg>
