<svg width="67" height="55" viewBox="0 0 67 55" fill="none" xmlns="http://www.w3.org/2000/svg">
<path d="M0.947809 29.4852L27 48.6876V11.0235C27 9.12595 24.9234 8.02414 23.4224 9.12596L0.947809 25.6901C-0.315937 26.6205 -0.315937 28.5548 0.947809 29.4852Z" fill="#256BA7"/>
<path d="M46.6436 52.1876C45.7914 52.1876 44.9363 51.9568 44.1699 51.4991L43.8477 51.2892L43.8418 51.2843L20.5361 34.7228C17.8222 32.7961 17.8219 28.7789 20.5352 26.8517L47.5518 7.64954L51.5 4.84387V47.3497C51.4998 50.2372 49.1088 52.1876 46.6494 52.1876H46.6436ZM42.8086 21.6691L29.9785 30.7863L42.8086 39.9044V21.6691Z" fill="#E91651" stroke="white" stroke-width="5"/>
<path d="M40.1617 29.8307L66.2139 49.0331V11.369C66.2139 9.47141 64.1373 8.36959 62.6362 9.47142L40.1617 26.0355C38.8979 26.966 38.8979 28.9003 40.1617 29.8307Z" fill="#256BA7"/>
</svg>
