<svg width="24" height="24" viewBox="0 0 24 24" fill="none" xmlns="http://www.w3.org/2000/svg">
<path d="M2 4.41667C2 3.63307 2.63307 3 3.41667 3H20.4167C21.2003 3 21.8333 3.63307 21.8333 4.41667C21.8333 5.20026 21.2003 5.83333 20.4167 5.83333H3.41667C2.63307 5.83333 2 5.20026 2 4.41667ZM2 11.5C2 10.7164 2.63307 10.0833 3.41667 10.0833H20.4167C21.2003 10.0833 21.8333 10.7164 21.8333 11.5C21.8333 12.2836 21.2003 12.9167 20.4167 12.9167H3.41667C2.63307 12.9167 2 12.2836 2 11.5ZM21.8333 18.5833C21.8333 19.3669 21.2003 20 20.4167 20H3.41667C2.63307 20 2 19.3669 2 18.5833C2 17.7997 2.63307 17.1667 3.41667 17.1667H20.4167C21.2003 17.1667 21.8333 17.7997 21.8333 18.5833Z" fill="#256BA7"/>
</svg>
