<svg width="24" height="24" viewBox="0 0 24 24" fill="none" xmlns="http://www.w3.org/2000/svg">
<path d="M21.9995 12.4063C21.9995 6.88352 17.5223 2.4064 11.9995 2.4064C6.47667 2.4064 1.99951 6.88352 1.99951 12.4063C1.99951 17.0961 5.22811 21.0311 9.58375 22.1118V15.4621H7.52167V12.4063H9.58375V11.0896C9.58375 7.68592 11.1241 6.10833 14.4657 6.10833C15.0992 6.10833 16.1923 6.23253 16.6395 6.35677V9.12691C16.4035 9.10207 15.9936 9.08963 15.4843 9.08963C13.8446 9.08963 13.211 9.71074 13.211 11.3256V12.4063H16.4773L15.9162 15.4621H13.211V22.333C18.1624 21.735 21.9995 17.519 21.9995 12.4063Z" fill="#256BA7"/>
</svg>
