<svg width="24" height="24" viewBox="0 0 24 24" fill="none" xmlns="http://www.w3.org/2000/svg">
<path d="M22.0741 12.1606C24.1928 10.064 24.1928 6.66845 22.0741 4.57177C20.1991 2.71631 17.2441 2.47509 15.0878 4.00029L15.0278 4.04111C14.4878 4.42334 14.3641 5.16552 14.7503 5.69619C15.1366 6.22685 15.8866 6.35302 16.4228 5.9708L16.4828 5.92998C17.6866 5.08017 19.3328 5.21377 20.3753 6.24912C21.5566 7.41806 21.5566 9.31064 20.3753 10.4796L16.1678 14.6507C14.9866 15.8196 13.0741 15.8196 11.8928 14.6507C10.8466 13.6153 10.7116 11.9862 11.5703 10.7987L11.6116 10.7394C11.9978 10.205 11.8703 9.46279 11.3341 9.08427C10.7978 8.70576 10.0441 8.82822 9.66156 9.35888L9.62031 9.41826C8.07531 11.5483 8.31906 14.4726 10.1941 16.328C12.3128 18.4247 15.7441 18.4247 17.8628 16.328L22.0741 12.1606ZM2.58906 11.2923C0.470312 13.389 0.470312 16.7845 2.58906 18.8811C4.46406 20.7366 7.41906 20.9778 9.57531 19.4526L9.63531 19.4118C10.1753 19.0296 10.2991 18.2874 9.91281 17.7567C9.52656 17.2261 8.77656 17.0999 8.24031 17.4821L8.18031 17.5229C6.97656 18.3728 5.33031 18.2392 4.28781 17.2038C3.10656 16.0311 3.10656 14.1386 4.28781 12.9696L8.49531 8.80224C9.67656 7.6333 11.5891 7.6333 12.7703 8.80224C13.8166 9.83759 13.9516 11.4667 13.0928 12.6579L13.0516 12.7173C12.6653 13.2517 12.7928 13.9938 13.3291 14.3724C13.8653 14.7509 14.6191 14.6284 15.0016 14.0978L15.0428 14.0384C16.5878 11.9046 16.3441 8.98037 14.4691 7.1249C12.3503 5.02822 8.91906 5.02822 6.80031 7.1249L2.58906 11.2923Z" fill="#256BA7"/>
</svg>
