<svg width="24" height="24" viewBox="0 0 24 24" fill="none" xmlns="http://www.w3.org/2000/svg">
<path d="M21.5991 9.87665C20.8194 6.08549 17.8757 3.086 14.0962 2.25165C8.32077 0.976982 3.13853 4.69918 2.03551 9.92591C2.02118 9.96949 2.01014 10.0149 2.00387 10.0626C1.95909 10.4023 2.31104 10.7229 2.65493 10.7229C2.99882 10.7229 3.20629 10.5441 3.28898 10.2146L3.29614 10.2155C4.03796 7.15806 6.81326 4.89591 10.1101 4.94427C13.8266 4.99889 16.8577 8.03093 16.9115 11.7475C16.967 15.6079 13.8544 18.7548 10.0065 18.7548C6.8855 18.7548 4.24841 16.6843 3.39286 13.8421L3.38839 13.8439C3.26599 13.5621 2.81732 13.3974 2.51433 13.5218C2.17611 13.6609 2.00775 13.9992 2.09312 14.3326H2.09193C3.14301 18.7306 7.09805 22 11.8176 22C18.0342 22 22.9257 16.3276 21.5991 9.87635V9.87665Z" fill="#256BA7"/>
<path d="M11.0483 8.97266C11.0349 9.21236 11.0456 9.56818 11.1704 9.97266C11.3594 10.5853 11.7114 10.9843 11.9087 11.1777C11.9696 11.0596 12.0453 10.8781 12.0767 10.6455C12.1002 10.4703 12.0919 10.3189 12.0767 10.2061C12.3409 10.3604 12.9603 10.7704 13.3755 11.5703C13.5248 11.8581 13.8953 12.5937 13.73 13.542C13.6934 13.7513 13.5081 14.8166 12.5249 15.4199C11.8715 15.8212 11.2131 15.8045 10.9556 15.7842V15.7832C10.8174 15.7904 9.48149 15.838 8.63818 14.7744C8.00224 13.9722 8.06538 13.0671 8.07764 12.9248C8.1546 12.029 8.67207 11.4643 8.82471 11.3086C8.85041 11.4668 8.9154 11.7237 9.09619 11.9814C9.1833 12.1055 9.27678 12.2001 9.35791 12.2705C9.32657 11.9433 9.3147 11.3435 9.58154 10.6729C9.98742 9.65254 10.7708 9.13758 11.0483 8.97266ZM10.939 11.2705C10.7558 11.3796 10.2392 11.72 9.97119 12.3936C9.79512 12.8364 9.80217 13.2321 9.82275 13.4482C9.76906 13.4017 9.70716 13.3388 9.6499 13.2568C9.53092 13.0865 9.4882 12.9169 9.47119 12.8125C9.3706 12.9149 9.02884 13.2884 8.97803 13.8799C8.96997 13.9739 8.92813 14.572 9.34814 15.1016C9.76555 15.6281 10.3655 15.7425 10.6782 15.7646L10.8774 15.7676C11.0476 15.781 11.482 15.7922 11.9136 15.5273C12.5628 15.1285 12.6856 14.425 12.7095 14.2871C12.8184 13.6609 12.5736 13.1755 12.4751 12.9854C12.2011 12.4576 11.792 12.187 11.6177 12.085C11.6278 12.1593 11.6332 12.2592 11.6177 12.375C11.5968 12.5286 11.5476 12.6487 11.5073 12.7266C11.3772 12.5988 11.1448 12.3354 11.02 11.9307C10.9376 11.6635 10.9303 11.4287 10.939 11.2705Z" fill="#256BA7"/>
<path d="M10.9243 12.5938C10.918 12.7063 10.9224 12.8736 10.981 13.0635C11.0696 13.351 11.2351 13.5382 11.3276 13.6289C11.3563 13.5734 11.3921 13.4883 11.4067 13.3789C11.4178 13.2965 11.4139 13.225 11.4067 13.1719C11.5307 13.2444 11.8215 13.437 12.0161 13.8125C12.0863 13.9477 12.2597 14.2932 12.1821 14.7383C12.165 14.837 12.0776 15.3362 11.6167 15.6191C11.4405 15.7273 11.2632 15.7676 11.1216 15.7832C11.1965 15.7571 11.3398 15.695 11.4546 15.5479C11.5035 15.4852 11.5959 15.3453 11.604 15.1611C11.6126 14.966 11.5102 14.8085 11.3052 14.502C11.1067 14.2053 11.0378 14.1753 10.9712 14.001C10.8901 13.7884 10.8985 13.5867 10.9185 13.4482C10.7803 13.5479 10.5392 13.7506 10.3735 14.0889C10.3046 14.2298 10.1088 14.6301 10.2329 15.0996C10.2675 15.2304 10.3749 15.6365 10.7251 15.7676C10.7523 15.7777 10.7798 15.7831 10.8062 15.7891H10.7388C10.5165 15.7733 10.0893 15.6919 9.79248 15.3174C9.49421 14.9407 9.52411 14.5158 9.52979 14.4492C9.56595 14.0284 9.80903 13.7633 9.88037 13.6904C9.8923 13.7647 9.9227 13.8848 10.0073 14.0059C10.0482 14.0641 10.0922 14.1097 10.1304 14.1426C10.1157 13.9888 10.1105 13.7065 10.2358 13.3916C10.4266 12.9128 10.7942 12.671 10.9243 12.5938Z" fill="#256BA7"/>
<path d="M15.8146 13.3665H15.814C15.8656 13.1495 15.7638 12.9297 15.5596 12.8396C15.3766 12.7587 15.1056 12.8656 15.0316 13.0489L15.0289 13.0477C14.5121 14.8937 12.919 16.2388 11.0332 16.2388C8.70868 16.2388 6.82803 14.1949 6.86146 11.687C6.8937 9.27292 8.7251 7.30331 10.9705 7.26808C12.9622 7.23674 14.639 8.70604 15.0871 10.6921L15.0916 10.6915C15.1414 10.9055 15.2671 11.0216 15.4749 11.0216C15.6826 11.0216 15.8952 10.8133 15.868 10.5927C15.8641 10.5616 15.8576 10.5321 15.8489 10.5037C15.4241 8.33886 13.9963 6.57314 12.1133 5.79132C11.4574 5.56385 10.7541 5.43848 10.0216 5.43848C8.62062 5.43848 7.32446 5.89222 6.2695 6.65881C5.13902 7.57884 4.32557 8.92366 4.02944 10.4721C3.51688 13.1518 4.54199 15.623 6.32921 17.0576C7.37342 17.7983 8.64689 18.2356 10.0216 18.2356C10.8974 18.2356 11.7327 18.0583 12.4936 17.7382C14.1405 16.9105 15.3832 15.3083 15.8149 13.3668L15.8146 13.3665Z" fill="#256BA7"/>
</svg>
