<svg width="24" height="24" viewBox="0 0 24 24" fill="none" xmlns="http://www.w3.org/2000/svg">
<path d="M20.7507 10.2C19.0302 10.2037 17.3521 9.66664 15.9534 8.66472V15.6498C15.953 16.9434 15.5576 18.2062 14.8201 19.269C14.0827 20.3319 13.0382 21.1443 11.8265 21.5975C10.6149 22.0507 9.29367 22.1231 8.0397 21.8051C6.78573 21.4871 5.65875 20.7938 4.80949 19.8179C3.96022 18.842 3.42916 17.6301 3.28732 16.3442C3.14549 15.0584 3.39965 13.7599 4.0158 12.6223C4.63196 11.4848 5.58074 10.5626 6.73525 9.9789C7.88977 9.39523 9.19497 9.17797 10.4763 9.35619V12.8683C9.89041 12.6838 9.26122 12.6892 8.67858 12.8837C8.09594 13.0781 7.58963 13.4517 7.23195 13.9511C6.87428 14.4504 6.68352 15.05 6.68691 15.6642C6.69031 16.2785 6.88768 16.8759 7.25086 17.3713C7.61404 17.8666 8.12444 18.2346 8.7092 18.4226C9.29396 18.6106 9.92316 18.609 10.507 18.4181C11.0908 18.2272 11.5994 17.8568 11.9601 17.3596C12.3208 16.8624 12.5152 16.264 12.5156 15.6498V2H15.9534C15.9515 2.29076 15.9763 2.58107 16.0276 2.86727C16.1472 3.50523 16.3956 4.1121 16.7576 4.6508C17.1197 5.18951 17.5878 5.64873 18.1333 6.00039C18.9098 6.51327 19.8201 6.78635 20.7507 6.78563V10.2Z" fill="#256BA7"/>
</svg>
