<svg width="24" height="24" viewBox="0 0 24 24" fill="none" xmlns="http://www.w3.org/2000/svg">
<path d="M17.7412 3.01562C18.6447 2.27883 19.9793 2.33186 20.8213 3.17383C21.7189 4.07187 21.7191 5.52979 20.8213 6.42773L15.2539 11.999L20.8262 17.5664C21.7242 18.4645 21.7242 19.9232 20.8262 20.8213C19.9281 21.7189 18.4702 21.7191 17.5723 20.8213L12 15.2539L6.43359 20.8262C5.53554 21.7242 4.07677 21.7242 3.17871 20.8262C2.28107 19.9281 2.28093 18.4702 3.17871 17.5723L8.74512 12L3.17383 6.43359C2.27577 5.53554 2.27577 4.07677 3.17383 3.17871C4.07187 2.28107 5.52979 2.28093 6.42773 3.17871L11.999 8.74512L17.5664 3.17383L17.7412 3.01562Z" fill="#256BA7" stroke="white"/>
</svg>
