<svg width="24" height="24" viewBox="0 0 24 24" fill="none" xmlns="http://www.w3.org/2000/svg">
<path d="M20.9988 7.03406C20.7828 6.23341 20.1463 5.60284 19.3382 5.38885C17.8735 5 12.0001 5 12.0001 5C12.0001 5 6.12669 5 4.66192 5.38885C3.85383 5.60288 3.21738 6.23341 3.00136 7.03406C2.60889 8.48529 2.60889 11.5131 2.60889 11.5131C2.60889 11.5131 2.60889 14.541 3.00136 15.9922C3.21738 16.7929 3.85383 17.3972 4.66192 17.6112C6.12669 18 12.0001 18 12.0001 18C12.0001 18 17.8735 18 19.3382 17.6112C20.1463 17.3972 20.7828 16.7929 20.9988 15.9922C21.3913 14.541 21.3913 11.5131 21.3913 11.5131C21.3913 11.5131 21.3913 8.48529 20.9988 7.03406ZM10.0791 14.2622V8.76408L14.9882 11.5132L10.0791 14.2622Z" fill="#256BA7"/>
</svg>
