<svg width="100" height="95" viewBox="0 0 100 95" fill="none" xmlns="http://www.w3.org/2000/svg">
<path d="M7.05968 19.8898L44.6289 47.7743L7.05968 75.6589V19.8898ZM4.49466 10.0244C2.17673 10.0244 0 11.9437 0 14.6943V89.9129L51.6651 51.564C54.1712 49.7058 54.1712 45.8428 51.6651 43.9847L7.09497 10.9046C6.28311 10.3056 5.37712 10.0244 4.50643 10.0244H4.49466Z" fill="#E91651"/>
<path d="M42.4736 7.93994L94.1377 46.3442C97.9899 49.2045 97.9895 55.0872 94.1377 57.9478L94.1387 57.9487L49.5684 91.0767L49.5645 91.0796C44.7929 94.6114 38.4824 90.9406 38.4824 85.2749V4.97314L42.4736 7.93994Z" fill="#256BA7" stroke="white" stroke-width="5"/>
</svg>
