<svg width="104" height="95" viewBox="0 0 104 95" fill="none" xmlns="http://www.w3.org/2000/svg">
<path d="M1.95111 43.3271L55.584 4.92236V80.2505C55.584 84.0457 51.309 86.2493 48.2188 84.0457L1.95111 50.9175C-0.650532 49.0566 -0.650532 45.188 1.95111 43.3271Z" fill="#256BA7"/>
<path d="M93.4507 2.5C92.0247 2.5 90.5783 2.94484 89.3149 3.84277L89.3091 3.84668L43.0425 36.9258L42.6792 37.2021C39.0486 40.1489 39.1698 45.8083 43.0425 48.5742L96.6743 86.9219L100.628 89.749V9.66992C100.628 5.42281 97.1306 2.5 93.4624 2.5H93.4507ZM88.3003 65.7734L56.0981 42.749L88.3003 19.7256V65.7734Z" fill="#E91651" stroke="white" stroke-width="5"/>
</svg>
